<svg data-v-423bf9ae="" xmlns="http://www.w3.org/2000/svg" viewBox="0 0 87.32793578541325 60" class="font"><!----><!----><defs data-v-423bf9ae=""><linearGradient data-v-423bf9ae="" gradientTransform="rotate(25)" id="d1a7dc25-509a-41b6-9267-9ac4228343c3" x1="0%" y1="0%" x2="100%" y2="0%"><stop data-v-423bf9ae="" offset="0%" style="stop-color: rgb(219, 36, 40); stop-opacity: 1;"></stop><stop data-v-423bf9ae="" offset="100%" style="stop-color: rgb(160, 153, 139); stop-opacity: 1;"></stop></linearGradient></defs><g data-v-423bf9ae="" id="eb6d4917-69bf-4d76-80aa-348380bf82d8" fill="url(#d1a7dc25-509a-41b6-9267-9ac4228343c3)" transform="matrix(4.04858307932048,0,0,4.04858307932048,3.9676102579792456,-15.101214486248828)"><path d="M4.09 11.66L4.42 12.00L4.42 12.00Q3.79 12.61 3.24 13.03L3.24 13.03L3.24 13.03Q2.68 13.45 2.17 13.70L2.17 13.70L2.17 13.70Q1.67 13.95 1.21 14.06L1.21 14.06L1.21 14.06Q0.75 14.17 0.31 14.17L0.31 14.17L0.31 14.17Q0.12 14.17-0.10 14.03L-0.10 14.03L-0.10 14.03Q-0.33 13.90-0.52 13.70L-0.52 13.70L-0.52 13.70Q-0.72 13.51-0.85 13.30L-0.85 13.30L-0.85 13.30Q-0.98 13.08-0.98 12.93L-0.98 12.93L-0.98 12.93Q-0.98 12.37-0.82 11.90L-0.82 11.90L-0.82 11.90Q-0.67 11.44-0.42 11.06L-0.42 11.06L-0.42 11.06Q-0.16 10.68 0.16 10.40L0.16 10.40L0.16 10.40Q0.49 10.11 0.84 9.92L0.84 9.92L0.84 9.92Q1.19 9.73 1.54 9.63L1.54 9.63L1.54 9.63Q1.89 9.54 2.18 9.54L2.18 9.54L2.18 9.54Q2.39 9.54 2.60 9.66L2.60 9.66L2.60 9.66Q2.81 9.78 2.98 9.96L2.98 9.96L2.98 9.96Q3.15 10.14 3.26 10.33L3.26 10.33L3.26 10.33Q3.36 10.53 3.36 10.67L3.36 10.67L3.36 10.67Q3.36 10.90 3.17 11.15L3.17 11.15L3.17 11.15Q2.97 11.39 2.62 11.64L2.62 11.64L2.62 11.64Q2.26 11.89 1.76 12.16L1.76 12.16L1.76 12.16Q1.26 12.42 0.66 12.69L0.66 12.69L0.66 12.69Q0.64 12.85 0.64 13.01L0.64 13.01L0.64 13.01Q0.64 13.22 0.73 13.30L0.73 13.30L0.73 13.30Q0.83 13.37 1.08 13.37L1.08 13.37L1.08 13.37Q1.53 13.37 1.93 13.22L1.93 13.22L1.93 13.22Q2.33 13.07 2.70 12.83L2.70 12.83L2.70 12.83Q3.07 12.59 3.41 12.28L3.41 12.28L3.41 12.28Q3.75 11.98 4.09 11.66L4.09 11.66ZM2.02 10.29L2.02 10.29L2.02 10.29Q1.88 10.29 1.72 10.44L1.72 10.44L1.72 10.44Q1.55 10.58 1.39 10.82L1.39 10.82L1.39 10.82Q1.22 11.06 1.07 11.37L1.07 11.37L1.07 11.37Q0.92 11.68 0.81 12.02L0.81 12.02L0.81 12.02Q1.07 11.85 1.31 11.67L1.31 11.67L1.31 11.67Q1.55 11.48 1.74 11.28L1.74 11.28L1.74 11.28Q1.93 11.08 2.05 10.87L2.05 10.87L2.05 10.87Q2.17 10.66 2.17 10.45L2.17 10.45L2.17 10.45Q2.17 10.38 2.13 10.34L2.13 10.34L2.13 10.34Q2.09 10.29 2.02 10.29ZM8.18 12.92L8.18 12.92L8.18 12.92Q8.18 13.09 8.29 13.09L8.29 13.09L8.29 13.09Q8.42 13.09 8.60 13.01L8.60 13.01L8.60 13.01Q8.78 12.93 8.98 12.79L8.98 12.79L8.98 12.79Q9.17 12.66 9.38 12.50L9.38 12.50L9.38 12.50Q9.58 12.33 9.77 12.17L9.77 12.17L9.77 12.17Q9.95 12.02 10.09 11.88L10.09 11.88L10.09 11.88Q10.23 11.74 10.32 11.66L10.32 11.66L10.32 11.66Q10.38 11.72 10.48 11.82L10.48 11.82L10.48 11.82Q10.58 11.92 10.65 12.00L10.65 12.00L10.65 12.00Q10.47 12.17 10.25 12.39L10.25 12.39L10.25 12.39Q10.02 12.61 9.77 12.84L9.77 12.84L9.77 12.84Q9.51 13.07 9.23 13.29L9.23 13.29L9.23 13.29Q8.96 13.50 8.68 13.67L8.68 13.67L8.68 13.67Q8.41 13.84 8.15 13.94L8.15 13.94L8.15 13.94Q7.89 14.04 7.66 14.04L7.66 14.04L7.66 14.04Q7.53 14.04 7.36 13.93L7.36 13.93L7.36 13.93Q7.18 13.82 7.01 13.65L7.01 13.65L7.01 13.65Q6.85 13.49 6.74 13.31L6.74 13.31L6.74 13.31Q6.62 13.13 6.62 12.98L6.62 12.98L6.62 12.98Q6.62 12.67 6.67 12.33L6.67 12.33L6.67 12.33Q6.36 12.60 6.07 12.84L6.07 12.84L6.07 12.84Q5.78 13.09 5.49 13.31L5.49 13.31L5.49 13.31Q5.20 13.52 4.90 13.70L4.90 13.70L4.90 13.70Q4.59 13.88 4.25 14.01L4.25 14.01L4.25 14.01Q4.15 14.05 4.07 14.05L4.07 14.05L4.07 14.05Q4.01 14.05 3.90 13.99L3.90 13.99L3.90 13.99Q3.79 13.92 3.68 13.81L3.68 13.81L3.68 13.81Q3.58 13.71 3.51 13.57L3.51 13.57L3.51 13.57Q3.43 13.44 3.43 13.32L3.43 13.32L3.43 13.32Q3.43 13.04 3.54 12.69L3.54 12.69L3.54 12.69Q3.64 12.35 3.85 11.98L3.85 11.98L3.85 11.98Q4.05 11.61 4.34 11.25L4.34 11.25L4.34 11.25Q4.63 10.88 5.00 10.56L5.00 10.56L5.00 10.56Q5.37 10.23 5.81 9.97L5.81 9.97L5.81 9.97Q6.25 9.71 6.76 9.55L6.76 9.55L6.76 9.55Q6.86 9.56 7.01 9.64L7.01 9.64L7.01 9.64Q7.16 9.71 7.29 9.78L7.29 9.78L7.29 9.78Q7.53 9.08 7.85 8.37L7.85 8.37L7.85 8.37Q8.17 7.66 8.53 7.01L8.53 7.01L8.53 7.01Q8.89 6.36 9.28 5.79L9.28 5.79L9.28 5.79Q9.67 5.22 10.06 4.77L10.06 4.77L10.06 4.77Q10.45 4.33 10.82 4.06L10.82 4.06L10.82 4.06Q11.20 3.79 11.55 3.73L11.55 3.73L11.55 3.73Q11.70 3.73 11.86 3.82L11.86 3.82L11.86 3.82Q12.03 3.92 12.18 4.06L12.18 4.06L12.18 4.06Q12.33 4.20 12.44 4.35L12.44 4.35L12.44 4.35Q12.54 4.50 12.57 4.61L12.57 4.61L12.57 4.61Q12.57 4.92 12.41 5.34L12.41 5.34L12.41 5.34Q12.26 5.76 11.98 6.24L11.98 6.24L11.98 6.24Q11.70 6.72 11.32 7.25L11.32 7.25L11.32 7.25Q10.94 7.77 10.51 8.32L10.51 8.32L10.51 8.32Q10.07 8.86 9.59 9.40L9.59 9.40L9.59 9.40Q9.11 9.94 8.62 10.45L8.62 10.45L8.62 10.45Q8.42 11.14 8.30 11.77L8.30 11.77L8.30 11.77Q8.18 12.41 8.18 12.92ZM11.61 4.55L11.61 4.55L11.61 4.55Q11.49 4.55 11.32 4.72L11.32 4.72L11.32 4.72Q11.16 4.89 10.95 5.20L10.95 5.20L10.95 5.20Q10.74 5.50 10.51 5.92L10.51 5.92L10.51 5.92Q10.27 6.34 10.04 6.83L10.04 6.83L10.04 6.83Q9.80 7.32 9.56 7.88L9.56 7.88L9.56 7.88Q9.32 8.43 9.11 9.00L9.11 9.00L9.11 9.00Q9.62 8.37 10.08 7.73L10.08 7.73L10.08 7.73Q10.54 7.10 10.89 6.54L10.89 6.54L10.89 6.54Q11.24 5.97 11.44 5.50L11.44 5.50L11.44 5.50Q11.65 5.02 11.65 4.72L11.65 4.72L11.65 4.72Q11.65 4.68 11.65 4.61L11.65 4.61L11.65 4.61Q11.64 4.55 11.61 4.55ZM5.12 12.69L5.12 12.69L5.12 12.69Q5.35 12.69 5.79 12.37L5.79 12.37L5.79 12.37Q6.23 12.05 6.79 11.52L6.79 11.52L6.79 11.52Q6.86 11.20 6.95 10.88L6.95 10.88L6.95 10.88Q7.03 10.55 7.14 10.22L7.14 10.22L7.14 10.22Q6.75 10.49 6.37 10.83L6.37 10.83L6.37 10.83Q5.99 11.17 5.69 11.50L5.69 11.50L5.69 11.50Q5.40 11.84 5.22 12.13L5.22 12.13L5.22 12.13Q5.04 12.42 5.04 12.57L5.04 12.57L5.04 12.57Q5.04 12.69 5.12 12.69ZM12.05 10.47L11.82 11.16L11.82 11.16Q12.19 10.70 12.50 10.40L12.50 10.40L12.50 10.40Q12.80 10.10 13.04 9.93L13.04 9.93L13.04 9.93Q13.28 9.75 13.44 9.69L13.44 9.69L13.44 9.69Q13.60 9.62 13.69 9.62L13.69 9.62L13.69 9.62Q13.79 9.62 13.92 9.70L13.92 9.70L13.92 9.70Q14.05 9.78 14.18 9.90L14.18 9.90L14.18 9.90Q14.31 10.01 14.42 10.14L14.42 10.14L14.42 10.14Q14.53 10.26 14.60 10.34L14.60 10.34L14.60 10.34Q14.68 10.41 14.69 10.50L14.69 10.50L14.69 10.50Q14.71 10.58 14.71 10.67L14.71 10.67L14.71 10.67Q14.71 10.99 14.60 11.37L14.60 11.37L14.60 11.37Q14.49 11.75 14.31 12.12L14.31 12.12L14.31 12.12Q14.14 12.50 13.91 12.83L13.91 12.83L13.91 12.83Q13.69 13.17 13.45 13.40L13.45 13.40L13.45 13.40Q13.65 13.32 13.86 13.20L13.86 13.20L13.86 13.20Q14.07 13.08 14.27 12.94L14.27 12.94L14.27 12.94Q14.48 12.80 14.68 12.66L14.68 12.66L14.68 12.66Q14.88 12.51 15.05 12.37L15.05 12.37L15.05 12.37Q15.47 12.04 15.86 11.66L15.86 11.66L16.17 12.00L16.17 12.00Q15.94 12.21 15.66 12.45L15.66 12.45L15.66 12.45Q15.39 12.69 15.09 12.92L15.09 12.92L15.09 12.92Q14.79 13.15 14.48 13.36L14.48 13.36L14.48 13.36Q14.16 13.58 13.88 13.74L13.88 13.74L13.88 13.74Q13.59 13.90 13.34 14L13.34 14L13.34 14Q13.10 14.10 12.92 14.10L12.92 14.10L12.92 14.10Q12.80 14.10 12.61 14.02L12.61 14.02L12.61 14.02Q12.43 13.95 12.25 13.85L12.25 13.85L12.25 13.85Q12.08 13.75 11.95 13.63L11.95 13.63L11.95 13.63Q11.83 13.51 11.83 13.41L11.83 13.41L11.83 13.41Q11.83 13.36 11.90 13.31L11.90 13.31L11.90 13.31Q11.97 13.27 12.11 13.15L12.11 13.15L12.11 13.15Q12.24 13.04 12.43 12.80L12.43 12.80L12.43 12.80Q12.63 12.57 12.87 12.13L12.87 12.13L12.87 12.13Q13.00 11.88 13.11 11.62L13.11 11.62L13.11 11.62Q13.23 11.35 13.32 11.13L13.32 11.13L13.32 11.13Q13.41 10.90 13.46 10.73L13.46 10.73L13.46 10.73Q13.51 10.56 13.51 10.50L13.51 10.50L13.51 10.50Q13.51 10.44 13.49 10.41L13.49 10.41L13.49 10.41Q13.47 10.39 13.46 10.38L13.46 10.38L13.46 10.38Q13.43 10.37 13.41 10.38L13.41 10.38L13.41 10.38Q13.32 10.40 13.03 10.68L13.03 10.68L13.03 10.68Q12.74 10.96 12.35 11.47L12.35 11.47L12.35 11.47Q11.96 11.99 11.52 12.73L11.52 12.73L11.52 12.73Q11.08 13.47 10.69 14.42L10.69 14.42L10.69 14.42Q10.37 15.34 10.05 16.28L10.05 16.28L10.05 16.28Q9.73 17.21 9.42 18.14L9.42 18.14L7.68 18.55L7.68 18.55Q8.08 17.42 8.51 16.31L8.51 16.31L8.51 16.31Q8.93 15.20 9.35 14.09L9.35 14.09L9.35 14.09Q9.78 12.98 10.18 11.87L10.18 11.87L10.18 11.87Q10.59 10.75 10.96 9.63L10.96 9.63L10.96 9.63Q10.98 9.56 11.00 9.53L11.00 9.53L11.00 9.53Q11.01 9.50 11.07 9.50L11.07 9.50L11.07 9.50Q11.18 9.53 11.33 9.62L11.33 9.62L11.33 9.62Q11.49 9.71 11.65 9.83L11.65 9.83L11.65 9.83Q11.80 9.95 11.92 10.08L11.92 10.08L11.92 10.08Q12.04 10.20 12.09 10.29L12.09 10.29L12.09 10.29Q12.11 10.31 12.09 10.36L12.09 10.36L12.09 10.36Q12.07 10.41 12.05 10.47L12.05 10.47ZM20.25 11.66L20.59 12.00L20.59 12.00Q19.96 12.61 19.40 13.03L19.40 13.03L19.40 13.03Q18.85 13.45 18.34 13.70L18.34 13.70L18.34 13.70Q17.83 13.95 17.37 14.06L17.37 14.06L17.37 14.06Q16.91 14.17 16.47 14.17L16.47 14.17L16.47 14.17Q16.29 14.17 16.06 14.03L16.06 14.03L16.06 14.03Q15.84 13.90 15.64 13.70L15.64 13.70L15.64 13.70Q15.45 13.51 15.32 13.30L15.32 13.30L15.32 13.30Q15.19 13.08 15.19 12.93L15.19 12.93L15.19 12.93Q15.19 12.37 15.34 11.90L15.34 11.90L15.34 11.90Q15.50 11.44 15.75 11.06L15.75 11.06L15.75 11.06Q16.00 10.68 16.33 10.40L16.33 10.40L16.33 10.40Q16.65 10.11 17.00 9.92L17.00 9.92L17.00 9.92Q17.36 9.73 17.71 9.63L17.71 9.63L17.71 9.63Q18.05 9.54 18.35 9.54L18.35 9.54L18.35 9.54Q18.56 9.54 18.77 9.66L18.77 9.66L18.77 9.66Q18.98 9.78 19.15 9.96L19.15 9.96L19.15 9.96Q19.32 10.14 19.42 10.33L19.42 10.33L19.42 10.33Q19.53 10.53 19.53 10.67L19.53 10.67L19.53 10.67Q19.53 10.90 19.34 11.15L19.34 11.15L19.34 11.15Q19.14 11.39 18.79 11.64L18.79 11.64L18.79 11.64Q18.43 11.89 17.93 12.16L17.93 12.16L17.93 12.16Q17.43 12.42 16.83 12.69L16.83 12.69L16.83 12.69Q16.81 12.85 16.81 13.01L16.81 13.01L16.81 13.01Q16.81 13.22 16.90 13.30L16.90 13.30L16.90 13.30Q16.99 13.37 17.25 13.37L17.25 13.37L17.25 13.37Q17.70 13.37 18.10 13.22L18.10 13.22L18.10 13.22Q18.50 13.07 18.87 12.83L18.87 12.83L18.87 12.83Q19.24 12.59 19.58 12.28L19.58 12.28L19.58 12.28Q19.92 11.98 20.25 11.66L20.25 11.66ZM18.18 10.29L18.18 10.29L18.18 10.29Q18.05 10.29 17.88 10.44L17.88 10.44L17.88 10.44Q17.72 10.58 17.55 10.82L17.55 10.82L17.55 10.82Q17.39 11.06 17.24 11.37L17.24 11.37L17.24 11.37Q17.09 11.68 16.98 12.02L16.98 12.02L16.98 12.02Q17.23 11.85 17.48 11.67L17.48 11.67L17.48 11.67Q17.72 11.48 17.91 11.28L17.91 11.28L17.91 11.28Q18.10 11.08 18.22 10.87L18.22 10.87L18.22 10.87Q18.33 10.66 18.33 10.45L18.33 10.45L18.33 10.45Q18.33 10.38 18.30 10.34L18.30 10.34L18.30 10.34Q18.26 10.29 18.18 10.29Z"></path></g><!----><!----></svg>