<svg data-v-423bf9ae="" xmlns="http://www.w3.org/2000/svg" viewBox="0 0 164.0308757401942 60" class="font"><!----><!----><defs data-v-423bf9ae=""><linearGradient data-v-423bf9ae="" gradientTransform="rotate(25)" id="eae66e93-6603-482a-a4f6-3c0ec99af965" x1="0%" y1="0%" x2="100%" y2="0%"><stop data-v-423bf9ae="" offset="0%" style="stop-color: rgb(235, 40, 40); stop-opacity: 1;"></stop><stop data-v-423bf9ae="" offset="100%" style="stop-color: rgb(136, 18, 139); stop-opacity: 1;"></stop></linearGradient></defs><g data-v-423bf9ae="" id="851dfa6c-3bee-46e3-9ef5-2878406507aa" fill="url(#eae66e93-6603-482a-a4f6-3c0ec99af965)" transform="matrix(4.213482931608094,0,0,4.213482931608094,5.308988901798756,-9.98595358887917)"><path d="M9.45 8.07L9.45 8.07L9.45 8.07Q9.78 8.07 9.78 8.44L9.78 8.44L9.78 8.44Q9.78 8.69 9.61 9.06L9.61 9.06L9.61 9.06Q9.45 9.43 9.13 9.76L9.13 9.76L9.13 9.76Q8.82 10.08 8.41 10.43L8.41 10.43L8.41 10.43Q8.00 10.78 7.46 11.16L7.46 11.16L7.46 11.16Q6.92 11.55 6.26 11.92L6.26 11.92L6.26 11.92Q5.61 12.30 4.87 12.60L4.87 12.60L4.87 12.60Q3.23 13.27 1.70 13.27L1.70 13.27L1.70 13.27Q0.53 13.27-0.34 12.66L-0.34 12.66L-0.34 12.66Q-1.26 12.02-1.26 11.12L-1.26 11.12L-1.26 11.12Q-1.26 9.69 0.28 8.40L0.28 8.40L0.28 8.40Q1.61 7.29 3.40 6.69L3.40 6.69L3.40 6.69Q4.50 6.32 5.26 6.32L5.26 6.32L5.26 6.32Q5.87 6.32 6.30 6.62L6.30 6.62L6.30 6.62Q6.75 6.95 6.75 7.50L6.75 7.50L6.75 7.50Q6.75 8.37 5.37 9.42L5.37 9.42L5.37 9.42Q5.15 9.59 4.98 9.71L4.98 9.71L4.73 9.87L4.73 9.87Q4.05 10.35 2.65 10.94L2.65 10.94L2.65 10.94Q3.08 11.17 3.46 11.17L3.46 11.17L3.46 11.17Q3.83 11.17 4.13 11.08L4.13 11.08L4.13 11.08Q4.42 10.99 4.80 10.83L4.80 10.83L4.80 10.83Q5.17 10.66 5.60 10.44L5.60 10.44L5.60 10.44Q6.03 10.21 6.47 9.93L6.47 9.93L6.47 9.93Q7.44 9.32 8.16 8.69L8.16 8.69L8.16 8.69Q8.54 8.34 9.12 8.13L9.12 8.13L9.12 8.13Q9.31 8.07 9.45 8.07ZM1.91 9.99L1.91 9.99L2.29 9.80L2.29 9.80Q2.47 9.71 2.62 9.63L2.62 9.63L2.62 9.63Q4.00 8.83 4.19 8.65L4.19 8.65L4.19 8.65Q4.38 8.46 4.38 8.39L4.38 8.39L4.38 8.39Q4.38 8.32 4.34 8.22L4.34 8.22L4.34 8.22Q4.30 8.13 4.23 8.05L4.23 8.05L4.23 8.05Q4.07 7.86 3.88 7.86L3.88 7.86L3.88 7.86Q3.70 7.86 3.48 7.93L3.48 7.93L3.48 7.93Q3.25 8.00 3.03 8.12L3.03 8.12L3.03 8.12Q2.80 8.24 2.59 8.40L2.59 8.40L2.59 8.40Q2.39 8.57 2.23 8.76L2.23 8.76L2.23 8.76Q1.87 9.19 1.87 9.51L1.87 9.51L1.87 9.51Q1.87 9.82 1.91 9.99ZM19.79 8.05L19.79 8.05L19.79 8.05Q20.10 8.05 20.10 8.36L20.10 8.36L20.10 8.36Q20.10 8.86 19.44 9.77L19.44 9.77L19.44 9.77Q18.98 10.40 17.55 11.53L17.55 11.53L17.55 11.53Q15.85 12.87 14.82 12.87L14.82 12.87L14.82 12.87Q14.04 12.87 13.64 12.21L13.64 12.21L13.64 12.21Q13.41 11.81 13.25 11.05L13.25 11.05L12.65 11.48L12.65 11.48Q10.14 13.22 8.90 13.22L8.90 13.22L8.90 13.22Q7.87 13.22 7.25 12.47L7.25 12.47L7.25 12.47Q6.70 11.79 6.70 10.85L6.70 10.85L6.70 10.85Q6.70 9.81 7.41 9.21L7.41 9.21L7.41 9.21Q8.86 7.99 11.01 7.21L11.01 7.21L11.01 7.21Q11.89 6.88 12.12 6.88L12.12 6.88L12.12 6.88Q12.35 6.88 12.55 6.96L12.55 6.96L12.55 6.96Q12.74 7.04 12.93 7.16L12.93 7.16L12.93 7.16Q13.38 7.47 13.38 7.76L13.38 7.76L13.38 7.76Q13.38 7.99 13.10 8.13L13.10 8.13L13.10 8.13Q13.01 8.18 12.80 8.26L12.80 8.26L12.80 8.26Q12.58 8.35 12.28 8.49L12.28 8.49L12.28 8.49Q11.45 8.88 10.66 9.43L10.66 9.43L10.66 9.43Q10.10 9.91 10.10 10.20L10.10 10.20L10.10 10.20Q10.10 10.48 10.50 10.48L10.50 10.48L10.50 10.48Q10.83 10.48 11.81 9.90L11.81 9.90L11.81 9.90Q11.81 9.90 12.39 9.54L12.39 9.54L12.39 9.54Q13.02 9.15 13.39 8.83L13.39 8.83L13.39 8.83Q13.39 8.83 13.71 7.81L13.71 7.81L13.71 7.81Q14.29 5.97 15.00 4.78L15.00 4.78L15.00 4.78Q16.26 2.37 17.53 2.37L17.53 2.37L17.53 2.37Q17.99 2.37 18.27 2.54L18.27 2.54L18.27 2.54Q18.76 2.84 18.76 3.22L18.76 3.22L18.76 3.22Q18.76 3.59 18.62 4.01L18.62 4.01L18.62 4.01Q18.48 4.42 18.26 4.83L18.26 4.83L18.26 4.83Q18.04 5.24 17.75 5.65L17.75 5.65L16.58 7.19L16.58 7.19Q16.29 7.57 16.06 7.92L16.06 7.92L16.06 7.92Q15.67 8.78 15.67 9.39L15.67 9.39L15.67 9.39Q15.67 10.26 16.30 10.26L16.30 10.26L16.30 10.26Q16.67 10.26 17.61 9.50L17.61 9.50L18.42 8.82L18.42 8.82Q18.98 8.31 19.54 8.11L19.54 8.11L19.54 8.11Q19.69 8.05 19.79 8.05ZM20.98 11.39L20.98 11.39L20.98 11.39Q21.21 11.29 21.61 11.09L21.61 11.09L21.61 11.09Q24.08 9.82 24.32 9.69L24.32 9.69L24.60 9.54L24.60 9.54Q25.05 9.25 25.01 9.08L25.01 9.08L25.01 9.08Q24.94 8.74 24.64 8.80L24.64 8.80L24.64 8.80Q24.34 8.87 24.01 8.98L24.01 8.98L24.01 8.98Q23.69 9.08 23.32 9.24L23.32 9.24L23.32 9.24Q22.57 9.56 21.99 9.87L21.99 9.87L21.99 9.87Q19.98 11.03 19.57 11.27L19.57 11.27L19.57 11.27Q19.28 11.94 19.04 12.59L19.04 12.59L18.22 14.93L18.22 14.93Q17.83 16.02 17.43 16.40L17.43 16.40L17.43 16.40Q17.22 16.61 16.96 16.61L16.96 16.61L16.96 16.61Q16.32 16.61 15.95 16.16L15.95 16.16L15.95 16.16Q15.58 15.72 15.58 15.03L15.58 15.03L15.58 15.03Q15.58 14.34 15.76 13.68L15.76 13.68L15.76 13.68Q15.93 13.01 16.25 12.33L16.25 12.33L16.25 12.33Q16.88 10.94 17.95 9.75L17.95 9.75L17.95 9.75Q18.60 8.00 20.11 6.36L20.11 6.36L20.11 6.36Q21.03 5.37 21.83 4.96L21.83 4.96L21.83 4.96Q22.22 4.75 22.50 4.75L22.50 4.75L22.50 4.75Q22.78 4.75 22.93 4.88L22.93 4.88L22.93 4.88Q23.07 5.00 23.07 5.19L23.07 5.19L23.07 5.19Q23.07 5.38 22.96 5.67L22.96 5.67L22.96 5.67Q22.84 5.95 22.64 6.31L22.64 6.31L22.64 6.31Q22.44 6.67 22.18 7.07L22.18 7.07L21.61 7.90L21.61 7.90Q21.54 8.00 21.54 8.08L21.54 8.08L21.54 8.08Q21.54 8.21 21.70 8.21L21.70 8.21L21.70 8.21Q21.88 8.21 22.35 7.98L22.35 7.98L23.45 7.48L23.45 7.48Q24.88 6.83 26.20 6.83L26.20 6.83L26.20 6.83Q26.88 6.83 27.48 7.48L27.48 7.48L27.48 7.48Q28.09 8.13 28.09 8.89L28.09 8.89L28.09 8.89Q28.09 10.05 27.14 10.68L27.14 10.68L26.29 11.24L26.29 11.24Q25.83 11.53 25.35 11.81L25.35 11.81L24.36 12.35L24.36 12.35Q22.70 13.21 21.80 13.21L21.80 13.21L21.80 13.21Q20.89 13.21 20.48 12.98L20.48 12.98L20.48 12.98Q20.07 12.76 20.07 12.35L20.07 12.35L20.07 12.35Q20.07 11.79 20.98 11.39ZM37.34 8.07L37.34 8.07L37.34 8.07Q37.67 8.07 37.67 8.44L37.67 8.44L37.67 8.44Q37.67 8.69 37.51 9.06L37.51 9.06L37.51 9.06Q37.34 9.43 37.02 9.76L37.02 9.76L37.02 9.76Q36.71 10.08 36.30 10.43L36.30 10.43L36.30 10.43Q35.90 10.78 35.35 11.16L35.35 11.16L35.35 11.16Q34.81 11.55 34.15 11.92L34.15 11.92L34.15 11.92Q33.50 12.30 32.76 12.60L32.76 12.60L32.76 12.60Q31.12 13.27 29.59 13.27L29.59 13.27L29.59 13.27Q28.42 13.27 27.55 12.66L27.55 12.66L27.55 12.66Q26.63 12.02 26.63 11.12L26.63 11.12L26.63 11.12Q26.63 9.69 28.17 8.40L28.17 8.40L28.17 8.40Q29.50 7.29 31.29 6.69L31.29 6.69L31.29 6.69Q32.39 6.32 33.15 6.32L33.15 6.32L33.15 6.32Q33.76 6.32 34.19 6.62L34.19 6.62L34.19 6.62Q34.64 6.95 34.64 7.50L34.64 7.50L34.64 7.50Q34.64 8.37 33.26 9.42L33.26 9.42L33.26 9.42Q33.04 9.59 32.87 9.71L32.87 9.71L32.62 9.87L32.62 9.87Q31.94 10.35 30.54 10.94L30.54 10.94L30.54 10.94Q30.97 11.17 31.35 11.17L31.35 11.17L31.35 11.17Q31.72 11.17 32.02 11.08L32.02 11.08L32.02 11.08Q32.31 10.99 32.69 10.83L32.69 10.83L32.69 10.83Q33.07 10.66 33.49 10.44L33.49 10.44L33.49 10.44Q33.92 10.21 34.36 9.93L34.36 9.93L34.36 9.93Q35.33 9.32 36.05 8.69L36.05 8.69L36.05 8.69Q36.43 8.34 37.01 8.13L37.01 8.13L37.01 8.13Q37.20 8.07 37.34 8.07ZM29.80 9.99L29.80 9.99L30.18 9.80L30.18 9.80Q30.37 9.71 30.51 9.63L30.51 9.63L30.51 9.63Q31.89 8.83 32.08 8.65L32.08 8.65L32.08 8.65Q32.27 8.46 32.27 8.39L32.27 8.39L32.27 8.39Q32.27 8.32 32.23 8.22L32.23 8.22L32.23 8.22Q32.19 8.13 32.12 8.05L32.12 8.05L32.12 8.05Q31.96 7.86 31.77 7.86L31.77 7.86L31.77 7.86Q31.59 7.86 31.37 7.93L31.37 7.93L31.37 7.93Q31.14 8.00 30.92 8.12L30.92 8.12L30.92 8.12Q30.69 8.24 30.48 8.40L30.48 8.40L30.48 8.40Q30.28 8.57 30.12 8.76L30.12 8.76L30.12 8.76Q29.76 9.19 29.76 9.51L29.76 9.51L29.76 9.51Q29.76 9.82 29.80 9.99Z"></path></g><!----><!----></svg>